<svg xmlns="http://www.w3.org/2000/svg">

    <symbol id="tg" viewBox="0 0 16 16" fill="none">
        <path fill-rule="evenodd" clip-rule="evenodd"
              d="M13.1846 2.95333C13.3493 2.88399 13.5297 2.86008 13.7068 2.88408C13.8839 2.90808 14.0514 2.97911 14.1917 3.08979C14.3321 3.20047 14.4402 3.34674 14.5048 3.51339C14.5695 3.68003 14.5883 3.86096 14.5593 4.03733L13.0473 13.2087C12.9006 14.0933 11.9299 14.6007 11.1186 14.16C10.4399 13.7913 9.43193 13.2233 8.52526 12.6307C8.07193 12.334 6.68327 11.384 6.85393 10.708C7.0006 10.13 9.33393 7.958 10.6673 6.66667C11.1906 6.15933 10.9519 5.86667 10.3339 6.33333C8.79926 7.492 6.33526 9.254 5.5206 9.75C4.80193 10.1873 4.42726 10.262 3.97926 10.1873C3.16193 10.0513 2.40393 9.84067 1.78527 9.584C0.949265 9.23733 0.989932 8.088 1.7846 7.75333L13.1846 2.95333Z"
              fill="white"/>
    </symbol>

    <symbol id="mail" viewBox="0 0 16 16" fill="none">
        <path d="M4 3C3.46957 3 2.96086 3.21071 2.58579 3.58579C2.21071 3.96086 2 4.46957 2 5V5.201L8 8.432L14 5.202V5C14 4.46957 13.7893 3.96086 13.4142 3.58579C13.0391 3.21071 12.5304 3 12 3H4ZM14 6.337L8.237 9.44C8.16416 9.47921 8.08273 9.49974 8 9.49974C7.91727 9.49974 7.83584 9.47921 7.763 9.44L2 6.337V11C2 11.5304 2.21071 12.0391 2.58579 12.4142C2.96086 12.7893 3.46957 13 4 13H12C12.5304 13 13.0391 12.7893 13.4142 12.4142C13.7893 12.0391 14 11.5304 14 11V6.337Z"
              fill="white"/>
    </symbol>

    <symbol id="burger" viewBox="0 0 24 24" fill="none">
        <path d="M21 12C21 12.1989 20.921 12.3897 20.7803 12.5303C20.6397 12.671 20.4489 12.75 20.25 12.75H3.75C3.55109 12.75 3.36032 12.671 3.21967 12.5303C3.07902 12.3897 3 12.1989 3 12C3 11.8011 3.07902 11.6103 3.21967 11.4697C3.36032 11.329 3.55109 11.25 3.75 11.25H20.25C20.4489 11.25 20.6397 11.329 20.7803 11.4697C20.921 11.6103 21 11.8011 21 12ZM3.75 6.75H20.25C20.4489 6.75 20.6397 6.67098 20.7803 6.53033C20.921 6.38968 21 6.19891 21 6C21 5.80109 20.921 5.61032 20.7803 5.46967C20.6397 5.32902 20.4489 5.25 20.25 5.25H3.75C3.55109 5.25 3.36032 5.32902 3.21967 5.46967C3.07902 5.61032 3 5.80109 3 6C3 6.19891 3.07902 6.38968 3.21967 6.53033C3.36032 6.67098 3.55109 6.75 3.75 6.75ZM20.25 17.25H3.75C3.55109 17.25 3.36032 17.329 3.21967 17.4697C3.07902 17.6103 3 17.8011 3 18C3 18.1989 3.07902 18.3897 3.21967 18.5303C3.36032 18.671 3.55109 18.75 3.75 18.75H20.25C20.4489 18.75 20.6397 18.671 20.7803 18.5303C20.921 18.3897 21 18.1989 21 18C21 17.8011 20.921 17.6103 20.7803 17.4697C20.6397 17.329 20.4489 17.25 20.25 17.25Z"
              fill="white"/>
    </symbol>

    <symbol id="user-four"  viewBox="0 0 48 48" fill="none">
        <path d="M43.2 41.0981C43.3677 41.321 43.4699 41.5861 43.4952 41.8639C43.5205 42.1416 43.4679 42.4209 43.3433 42.6704C43.2186 42.9199 43.0269 43.1297 42.7896 43.2762C42.5523 43.4227 42.2789 43.5002 42 43.5H6C5.72143 43.5 5.44837 43.4224 5.2114 43.276C4.97444 43.1295 4.78294 42.92 4.65836 42.6708C4.53378 42.4216 4.48104 42.1427 4.50606 41.8653C4.53108 41.5878 4.63286 41.3228 4.8 41.1C6.12822 39.3192 7.89942 37.9171 9.9375 37.0331C8.82033 36.0135 8.03755 34.6799 7.69191 33.2074C7.34626 31.7349 7.45389 30.1923 8.00068 28.7821C8.54748 27.3719 9.50787 26.16 10.7558 25.3054C12.0038 24.4508 13.4809 23.9935 14.9934 23.9935C16.5059 23.9935 17.9831 24.4508 19.2311 25.3054C20.479 26.16 21.4394 27.3719 21.9862 28.7821C22.533 30.1923 22.6406 31.7349 22.295 33.2074C21.9493 34.6799 21.1665 36.0135 20.0494 37.0331C21.5198 37.6687 22.856 38.5779 23.9869 39.7125C25.1178 38.5779 26.454 37.6687 27.9244 37.0331C26.8072 36.0135 26.0244 34.6799 25.6788 33.2074C25.3331 31.7349 25.4408 30.1923 25.9876 28.7821C26.5344 27.3719 27.4947 26.16 28.7427 25.3054C29.9906 24.4508 31.4678 23.9935 32.9803 23.9935C34.4928 23.9935 35.97 24.4508 37.2179 25.3054C38.4659 26.16 39.4263 27.3719 39.9731 28.7821C40.5199 30.1923 40.6275 31.7349 40.2818 33.2074C39.9362 34.6799 39.1534 36.0135 38.0363 37.0331C40.0838 37.9125 41.8645 39.3142 43.2 41.0981ZM5.1 23.7C5.25759 23.8182 5.43691 23.9042 5.62773 23.953C5.81855 24.0019 6.01713 24.0128 6.21213 23.9849C6.40714 23.957 6.59474 23.891 6.76424 23.7907C6.93374 23.6903 7.08181 23.5576 7.2 23.4C8.10818 22.1891 9.28583 21.2062 10.6397 20.5293C11.9935 19.8524 13.4864 19.5 15 19.5C16.5136 19.5 18.0065 19.8524 19.3603 20.5293C20.7142 21.2062 21.8918 22.1891 22.8 23.4C22.9397 23.5863 23.1209 23.7375 23.3292 23.8416C23.5375 23.9458 23.7671 24 24 24C24.2329 24 24.4625 23.9458 24.6708 23.8416C24.8791 23.7375 25.0603 23.5863 25.2 23.4C26.1082 22.1891 27.2858 21.2062 28.6397 20.5293C29.9935 19.8524 31.4864 19.5 33 19.5C34.5136 19.5 36.0065 19.8524 37.3603 20.5293C38.7142 21.2062 39.8918 22.1891 40.8 23.4C40.9183 23.5576 41.0665 23.6903 41.2361 23.7906C41.4057 23.8909 41.5934 23.9569 41.7885 23.9846C41.9836 24.0124 42.1823 24.0015 42.3731 23.9525C42.564 23.9035 42.7433 23.8173 42.9009 23.699C43.0585 23.5807 43.1913 23.4325 43.2916 23.2629C43.3919 23.0933 43.4578 22.9056 43.4856 22.7105C43.5134 22.5154 43.5024 22.3168 43.4534 22.1259C43.4044 21.935 43.3183 21.7557 43.2 21.5981C41.8717 19.8178 40.1005 18.4164 38.0625 17.5331C39.1797 16.5135 39.9624 15.1799 40.3081 13.7074C40.6537 12.2349 40.5461 10.6923 39.9993 9.28213C39.4525 7.87191 38.4921 6.65997 37.2442 5.80537C35.9962 4.95078 34.5191 4.49347 33.0066 4.49347C31.4941 4.49347 30.0169 4.95078 28.7689 5.80537C27.521 6.65997 26.5606 7.87191 26.0138 9.28213C25.467 10.6923 25.3594 12.2349 25.705 13.7074C26.0507 15.1799 26.8335 16.5135 27.9506 17.5331C26.4802 18.1687 25.144 19.0779 24.0131 20.2125C22.8822 19.0779 21.546 18.1687 20.0756 17.5331C21.1928 16.5135 21.9756 15.1799 22.3212 13.7074C22.6669 12.2349 22.5592 10.6923 22.0124 9.28213C21.4656 7.87191 20.5053 6.65997 19.2573 5.80537C18.0094 4.95078 16.5322 4.49347 15.0197 4.49347C13.5072 4.49347 12.03 4.95078 10.7821 5.80537C9.53412 6.65997 8.57373 7.87191 8.02693 9.28213C7.48014 10.6923 7.37251 12.2349 7.71816 13.7074C8.0638 15.1799 8.84658 16.5135 9.96375 17.5331C7.91611 18.4132 6.13547 19.8156 4.8 21.6C4.68181 21.7576 4.59582 21.9369 4.54693 22.1277C4.49804 22.3185 4.48722 22.5171 4.51508 22.7121C4.54293 22.9071 4.60893 23.0947 4.70929 23.2642C4.80965 23.4337 4.94241 23.5818 5.1 23.7Z" fill="#FF9000"/>
    </symbol>

    <symbol id="hand-tap"  viewBox="0 0 48 48" fill="none">
        <path d="M12 12C12 9.61305 12.9482 7.32387 14.636 5.63604C16.3239 3.94821 18.613 3 21 3C23.3869 3 25.6761 3.94821 27.364 5.63604C29.0518 7.32387 30 9.61305 30 12C30 12.3978 29.842 12.7794 29.5606 13.0607C29.2793 13.342 28.8978 13.5 28.5 13.5C28.1022 13.5 27.7206 13.342 27.4393 13.0607C27.158 12.7794 27 12.3978 27 12C27 10.4087 26.3678 8.88258 25.2426 7.75736C24.1174 6.63214 22.5913 6 21 6C19.4087 6 17.8826 6.63214 16.7573 7.75736C15.6321 8.88258 15 10.4087 15 12C15 12.3978 14.842 12.7794 14.5606 13.0607C14.2793 13.342 13.8978 13.5 13.5 13.5C13.1022 13.5 12.7206 13.342 12.4393 13.0607C12.158 12.7794 12 12.3978 12 12ZM38.8556 22.5C37.2412 22.575 36 23.9662 36 25.5806V26.9456C36.0052 27.3327 35.8636 27.7075 35.6038 27.9944C35.344 28.2814 34.9851 28.4594 34.5994 28.4925C34.3942 28.5061 34.1884 28.4774 33.9948 28.4082C33.8012 28.3389 33.6238 28.2306 33.4739 28.0899C33.3239 27.9492 33.2044 27.7792 33.1229 27.5904C33.0414 27.4017 32.9995 27.1981 33 26.9925V22.5844C33 20.97 31.7587 19.5844 30.1444 19.5037C29.7387 19.4842 29.3334 19.5472 28.9528 19.689C28.5723 19.8307 28.2244 20.0483 27.9304 20.3284C27.6364 20.6086 27.4024 20.9455 27.2424 21.3188C27.0825 21.692 27 22.0939 27 22.5V25.4494C27.0052 25.8365 26.8636 26.2112 26.6038 26.4982C26.344 26.7852 25.9851 26.9631 25.5994 26.9963C25.3942 27.0099 25.1884 26.9812 24.9948 26.9119C24.8012 26.8426 24.6238 26.7343 24.4739 26.5937C24.3239 26.453 24.2044 26.283 24.1229 26.0942C24.0414 25.9054 23.9995 25.7019 24 25.4963V12.0844C24 10.47 22.7587 9.08437 21.1444 9.00375C20.7387 8.98421 20.3334 9.04722 19.9528 9.18897C19.5723 9.33073 19.2244 9.54827 18.9304 9.82841C18.6364 10.1086 18.4024 10.4455 18.2424 10.8188C18.0825 11.192 18 11.5939 18 12V34.4513C18.0045 34.814 17.8805 35.1667 17.6499 35.4468C17.4192 35.7268 17.0969 35.9162 16.74 35.9812H16.7175C16.4937 36.0063 16.2676 35.9647 16.0674 35.8617C15.8672 35.7586 15.702 35.5986 15.5925 35.4019L11.655 28.5694C10.8487 27.1706 9.07874 26.5875 7.64249 27.3281C7.27956 27.5127 6.958 27.7692 6.6974 28.0821C6.4368 28.3949 6.24261 28.7575 6.12666 29.1478C6.01071 29.5381 5.97542 29.948 6.02295 30.3524C6.07048 30.7567 6.19982 31.1472 6.40311 31.5L12.2062 42.7594C12.3386 42.9849 12.5277 43.1719 12.7546 43.3018C12.9815 43.4317 13.2385 43.5 13.5 43.5H39C39.2787 43.5002 39.5519 43.4228 39.789 43.2764C40.0261 43.13 40.2178 42.9205 40.3425 42.6712C40.41 42.5363 42 39.8475 42 35.0494V25.5C42.0005 25.0936 41.9183 24.6913 41.7586 24.3176C41.5989 23.9439 41.3649 23.6065 41.0709 23.326C40.7768 23.0454 40.4289 22.8275 40.048 22.6856C39.6672 22.5436 39.2616 22.4804 38.8556 22.5Z" fill="#FF9000"/>
    </symbol>

    <symbol id="seal-check" viewBox="0 0 48 48" fill="none">
        <path d="M42.3488 19.2787C41.6419 18.54 40.9106 17.7788 40.635 17.1094C40.38 16.4963 40.365 15.48 40.35 14.4956C40.3219 12.6656 40.2919 10.5919 38.85 9.15C37.4081 7.70812 35.3344 7.67812 33.5044 7.65C32.52 7.635 31.5037 7.62 30.8906 7.365C30.2231 7.08937 29.46 6.35812 28.7212 5.65125C27.4275 4.40812 25.9575 3 24 3C22.0425 3 20.5744 4.40812 19.2787 5.65125C18.54 6.35812 17.7788 7.08937 17.1094 7.365C16.5 7.62 15.48 7.635 14.4956 7.65C12.6656 7.67812 10.5919 7.70812 9.15 9.15C7.70812 10.5919 7.6875 12.6656 7.65 14.4956C7.635 15.48 7.62 16.4963 7.365 17.1094C7.08937 17.7769 6.35812 18.54 5.65125 19.2787C4.40812 20.5725 3 22.0425 3 24C3 25.9575 4.40812 27.4256 5.65125 28.7212C6.35812 29.46 7.08937 30.2213 7.365 30.8906C7.62 31.5037 7.635 32.52 7.65 33.5044C7.67812 35.3344 7.70812 37.4081 9.15 38.85C10.5919 40.2919 12.6656 40.3219 14.4956 40.35C15.48 40.365 16.4963 40.38 17.1094 40.635C17.7769 40.9106 18.54 41.6419 19.2787 42.3488C20.5725 43.5919 22.0425 45 24 45C25.9575 45 27.4256 43.5919 28.7212 42.3488C29.46 41.6419 30.2213 40.9106 30.8906 40.635C31.5037 40.38 32.52 40.365 33.5044 40.35C35.3344 40.3219 37.4081 40.2919 38.85 38.85C40.2919 37.4081 40.3219 35.3344 40.35 33.5044C40.365 32.52 40.38 31.5037 40.635 30.8906C40.9106 30.2231 41.6419 29.46 42.3488 28.7212C43.5919 27.4275 45 25.9575 45 24C45 22.0425 43.5919 20.5744 42.3488 19.2787ZM32.5613 20.5613L22.0613 31.0613C21.9219 31.2007 21.7565 31.3114 21.5744 31.3868C21.3923 31.4623 21.1971 31.5012 21 31.5012C20.8029 31.5012 20.6077 31.4623 20.4256 31.3868C20.2435 31.3114 20.0781 31.2007 19.9387 31.0613L15.4387 26.5613C15.1573 26.2798 14.9992 25.898 14.9992 25.5C14.9992 25.102 15.1573 24.7202 15.4387 24.4387C15.7202 24.1573 16.102 23.9992 16.5 23.9992C16.898 23.9992 17.2798 24.1573 17.5613 24.4387L21 27.8794L30.4387 18.4387C30.5781 18.2994 30.7436 18.1888 30.9257 18.1134C31.1077 18.038 31.3029 17.9992 31.5 17.9992C31.6971 17.9992 31.8923 18.038 32.0743 18.1134C32.2564 18.1888 32.4219 18.2994 32.5613 18.4387C32.7006 18.5781 32.8112 18.7436 32.8866 18.9257C32.962 19.1077 33.0008 19.3029 33.0008 19.5C33.0008 19.6971 32.962 19.8923 32.8866 20.0743C32.8112 20.2564 32.7006 20.4219 32.5613 20.5613Z" fill="#FF9000"/>
    </symbol>

    <symbol id="camera"  viewBox="0 0 16 16" fill="none">
        <path d="M13 3.5H11.2675L10.4156 2.2225C10.37 2.15409 10.3082 2.098 10.2357 2.05919C10.1632 2.02038 10.0822 2.00005 10 2H6C5.91777 2.00005 5.83682 2.02038 5.76432 2.05919C5.69182 2.098 5.63001 2.15409 5.58437 2.2225L4.73187 3.5H3C2.60218 3.5 2.22064 3.65804 1.93934 3.93934C1.65804 4.22064 1.5 4.60218 1.5 5V12C1.5 12.3978 1.65804 12.7794 1.93934 13.0607C2.22064 13.342 2.60218 13.5 3 13.5H13C13.3978 13.5 13.7794 13.342 14.0607 13.0607C14.342 12.7794 14.5 12.3978 14.5 12V5C14.5 4.60218 14.342 4.22064 14.0607 3.93934C13.7794 3.65804 13.3978 3.5 13 3.5ZM13.5 12C13.5 12.1326 13.4473 12.2598 13.3536 12.3536C13.2598 12.4473 13.1326 12.5 13 12.5H3C2.86739 12.5 2.74021 12.4473 2.64645 12.3536C2.55268 12.2598 2.5 12.1326 2.5 12V5C2.5 4.86739 2.55268 4.74021 2.64645 4.64645C2.74021 4.55268 2.86739 4.5 3 4.5H5C5.08234 4.50005 5.16342 4.47977 5.23603 4.44096C5.30865 4.40214 5.37055 4.34599 5.41625 4.2775L6.2675 3H9.73188L10.5837 4.2775C10.6294 4.34599 10.6914 4.40214 10.764 4.44096C10.8366 4.47977 10.9177 4.50005 11 4.5H13C13.1326 4.5 13.2598 4.55268 13.3536 4.64645C13.4473 4.74021 13.5 4.86739 13.5 5V12ZM8 5.5C7.4561 5.5 6.92442 5.66128 6.47218 5.96346C6.01995 6.26563 5.66747 6.69512 5.45933 7.19762C5.25119 7.70012 5.19673 8.25305 5.30284 8.7865C5.40895 9.31995 5.67086 9.80995 6.05546 10.1945C6.44005 10.5791 6.93005 10.8411 7.4635 10.9472C7.99695 11.0533 8.54988 10.9988 9.05238 10.7907C9.55488 10.5825 9.98437 10.2301 10.2865 9.77782C10.5887 9.32558 10.75 8.7939 10.75 8.25C10.7492 7.52091 10.4592 6.82192 9.94363 6.30637C9.42808 5.79082 8.72909 5.50083 8 5.5ZM8 10C7.65388 10 7.31554 9.89736 7.02775 9.70507C6.73997 9.51278 6.51566 9.23947 6.38321 8.9197C6.25076 8.59993 6.2161 8.24806 6.28363 7.90859C6.35115 7.56913 6.51782 7.25731 6.76256 7.01256C7.00731 6.76782 7.31913 6.60115 7.65859 6.53363C7.99806 6.4661 8.34993 6.50076 8.6697 6.63321C8.98947 6.76566 9.26278 6.98997 9.45507 7.27775C9.64736 7.56554 9.75 7.90388 9.75 8.25C9.75 8.71413 9.56563 9.15925 9.23744 9.48744C8.90925 9.81563 8.46413 10 8 10Z" fill="white"/>
    </symbol>

    <symbol id="heart-1"  viewBox="0 0 488 506" fill="none">
        <g style="mix-blend-mode:hard-light" filter="url(#filter0_f_80_802)">
            <ellipse cx="116.052" cy="103.481" rx="116.052" ry="103.481" transform="matrix(-0.965926 -0.258819 -0.258819 0.965926 379.16 205.746)" fill="#FF3780" fill-opacity="0.2"/>
        </g>
        <g style="mix-blend-mode:hard-light" filter="url(#filter1_f_80_802)">
            <path d="M314.894 164.57C338.622 170.928 352.762 195.128 346.466 218.625C341.384 237.592 321.802 280.593 235.587 306.265C234.045 306.717 232.408 306.736 230.856 306.32C229.304 305.904 227.896 305.069 226.786 303.907C164.958 238.567 169.5 191.536 174.583 172.569C180.879 149.072 205.224 135.184 228.952 141.542C252.681 147.9 265.015 178.838 265.015 178.838C265.015 178.838 291.165 158.212 314.894 164.57Z" stroke="#F32E7C" stroke-width="30" stroke-linecap="round" stroke-linejoin="round"/>
        </g>
        <g style="mix-blend-mode:hard-light" filter="url(#filter2_f_80_802)">
            <path d="M314.894 164.57C338.622 170.928 352.762 195.128 346.466 218.625C341.384 237.592 321.802 280.593 235.587 306.265C234.045 306.717 232.408 306.736 230.856 306.32C229.304 305.904 227.896 305.069 226.786 303.907C164.958 238.567 169.5 191.536 174.583 172.569C180.879 149.072 205.224 135.184 228.952 141.542C252.681 147.9 265.015 178.838 265.015 178.838C265.015 178.838 291.165 158.212 314.894 164.57Z" stroke="#FF26C2" stroke-width="35" stroke-linecap="round" stroke-linejoin="round"/>
        </g>
        <g style="mix-blend-mode:hard-light" filter="url(#filter3_ddi_80_802)">
            <path d="M314.894 164.57C338.622 170.928 352.762 195.128 346.466 218.625C341.384 237.592 321.802 280.593 235.587 306.265C234.045 306.717 232.408 306.736 230.856 306.32C229.304 305.904 227.896 305.069 226.786 303.907C164.958 238.567 169.5 191.536 174.583 172.569C180.879 149.072 205.224 135.184 228.952 141.542C252.681 147.9 265.015 178.838 265.015 178.838C265.015 178.838 291.165 158.212 314.894 164.57Z" stroke="#FB37FF" stroke-opacity="0.2" stroke-width="30" stroke-linecap="round" stroke-linejoin="round"/>
        </g>
        <g filter="url(#filter4_f_80_802)">
            <path d="M314.894 164.57C338.622 170.928 352.762 195.128 346.466 218.625C341.384 237.592 321.802 280.593 235.587 306.265C234.045 306.717 232.408 306.736 230.856 306.32C229.304 305.904 227.896 305.069 226.786 303.907C164.958 238.567 169.5 191.536 174.583 172.569C180.879 149.072 205.224 135.184 228.952 141.542C252.681 147.9 265.015 178.838 265.015 178.838C265.015 178.838 291.165 158.212 314.894 164.57Z" stroke="#FB37FF" stroke-width="20" stroke-linecap="round" stroke-linejoin="round"/>
        </g>
        <g filter="url(#filter5_f_80_802)">
            <path d="M314.894 164.57C338.622 170.928 352.762 195.128 346.466 218.625C341.384 237.592 321.802 280.593 235.587 306.265C234.045 306.717 232.408 306.736 230.856 306.32C229.304 305.904 227.896 305.069 226.786 303.907C164.958 238.567 169.5 191.536 174.583 172.569C180.879 149.072 205.224 135.184 228.952 141.542C252.681 147.9 265.015 178.838 265.015 178.838C265.015 178.838 291.165 158.212 314.894 164.57Z" stroke="white" stroke-width="10" stroke-linecap="round" stroke-linejoin="round"/>
        </g>
        <defs>
            <filter id="filter0_f_80_802" x="0" y="46.2664" width="480.558" height="458.796" filterUnits="userSpaceOnUse" color-interpolation-filters="sRGB">
                <feFlood flood-opacity="0" result="BackgroundImageFix"/>
                <feBlend mode="normal" in="SourceGraphic" in2="BackgroundImageFix" result="shape"/>
                <feGaussianBlur stdDeviation="62.5" result="effect1_foregroundBlur_80_802"/>
            </filter>
            <filter id="filter1_f_80_802" x="31.8799" y="0" width="456.09" height="446.618" filterUnits="userSpaceOnUse" color-interpolation-filters="sRGB">
                <feFlood flood-opacity="0" result="BackgroundImageFix"/>
                <feBlend mode="normal" in="SourceGraphic" in2="BackgroundImageFix" result="shape"/>
                <feGaussianBlur stdDeviation="62.5" result="effect1_foregroundBlur_80_802"/>
            </filter>
            <filter id="filter2_f_80_802" x="112.713" y="80.8333" width="294.425" height="284.952" filterUnits="userSpaceOnUse" color-interpolation-filters="sRGB">
                <feFlood flood-opacity="0" result="BackgroundImageFix"/>
                <feBlend mode="normal" in="SourceGraphic" in2="BackgroundImageFix" result="shape"/>
                <feGaussianBlur stdDeviation="20.8333" result="effect1_foregroundBlur_80_802"/>
            </filter>
            <filter id="filter3_ddi_80_802" x="102.713" y="112.5" width="314.424" height="304.952" filterUnits="userSpaceOnUse" color-interpolation-filters="sRGB">
                <feFlood flood-opacity="0" result="BackgroundImageFix"/>
                <feColorMatrix in="SourceAlpha" type="matrix" values="0 0 0 0 0 0 0 0 0 0 0 0 0 0 0 0 0 0 127 0" result="hardAlpha"/>
                <feOffset dy="27.0833"/>
                <feGaussianBlur stdDeviation="10.4167"/>
                <feColorMatrix type="matrix" values="0 0 0 0 0.3 0 0 0 0 0 0 0 0 0 0.26 0 0 0 0.7 0"/>
                <feBlend mode="multiply" in2="BackgroundImageFix" result="effect1_dropShadow_80_802"/>
                <feColorMatrix in="SourceAlpha" type="matrix" values="0 0 0 0 0 0 0 0 0 0 0 0 0 0 0 0 0 0 127 0" result="hardAlpha"/>
                <feOffset dy="41.6667"/>
                <feGaussianBlur stdDeviation="27.0833"/>
                <feColorMatrix type="matrix" values="0 0 0 0 0.6 0 0 0 0 0 0 0 0 0 0.6 0 0 0 1 0"/>
                <feBlend mode="color-dodge" in2="effect1_dropShadow_80_802" result="effect2_dropShadow_80_802"/>
                <feBlend mode="normal" in="SourceGraphic" in2="effect2_dropShadow_80_802" result="shape"/>
                <feColorMatrix in="SourceAlpha" type="matrix" values="0 0 0 0 0 0 0 0 0 0 0 0 0 0 0 0 0 0 127 0" result="hardAlpha"/>
                <feOffset dx="-2.70833" dy="5.41667"/>
                <feGaussianBlur stdDeviation="1.35417"/>
                <feComposite in2="hardAlpha" operator="arithmetic" k2="-1" k3="1"/>
                <feColorMatrix type="matrix" values="0 0 0 0 1 0 0 0 0 1 0 0 0 0 1 0 0 0 0.5 0"/>
                <feBlend mode="normal" in2="shape" result="effect3_innerShadow_80_802"/>
            </filter>
            <filter id="filter4_f_80_802" x="157.713" y="125.833" width="204.421" height="194.952" filterUnits="userSpaceOnUse" color-interpolation-filters="sRGB">
                <feFlood flood-opacity="0" result="BackgroundImageFix"/>
                <feBlend mode="normal" in="SourceGraphic" in2="BackgroundImageFix" result="shape"/>
                <feGaussianBlur stdDeviation="2.08333" result="effect1_foregroundBlur_80_802"/>
            </filter>
            <filter id="filter5_f_80_802" x="164.102" y="132.222" width="191.641" height="182.174" filterUnits="userSpaceOnUse" color-interpolation-filters="sRGB">
                <feFlood flood-opacity="0" result="BackgroundImageFix"/>
                <feBlend mode="normal" in="SourceGraphic" in2="BackgroundImageFix" result="shape"/>
                <feGaussianBlur stdDeviation="1.38889" result="effect1_foregroundBlur_80_802"/>
            </filter>
        </defs>
    </symbol>

    <symbol id="heart-2"  viewBox="0 0 488 506" fill="none">
        <g style="mix-blend-mode:hard-light" filter="url(#filter0_f_80_794)">
            <ellipse cx="247.691" cy="275.664" rx="116.052" ry="103.481" transform="rotate(-15 247.691 275.664)" fill="#FF3780" fill-opacity="0.2"/>
        </g>
        <g style="mix-blend-mode:hard-light" filter="url(#filter1_f_80_794)">
            <path d="M173.076 164.57C149.348 170.928 135.208 195.128 141.504 218.625C146.587 237.592 166.169 280.593 252.383 306.265C253.925 306.717 255.562 306.736 257.114 306.32C258.666 305.904 260.074 305.069 261.184 303.907C323.012 238.567 318.47 191.536 313.387 172.569C307.092 149.072 282.746 135.184 259.018 141.542C235.289 147.9 222.955 178.838 222.955 178.838C222.955 178.838 196.805 158.211 173.076 164.57Z" stroke="#F32E7C" stroke-width="30" stroke-linecap="round" stroke-linejoin="round"/>
        </g>
        <g style="mix-blend-mode:hard-light" filter="url(#filter2_f_80_794)">
            <path d="M173.076 164.57C149.348 170.928 135.208 195.128 141.504 218.625C146.587 237.592 166.169 280.593 252.383 306.265C253.925 306.717 255.562 306.736 257.114 306.32C258.666 305.904 260.074 305.069 261.184 303.907C323.012 238.567 318.47 191.536 313.387 172.569C307.092 149.072 282.746 135.184 259.018 141.542C235.289 147.9 222.955 178.838 222.955 178.838C222.955 178.838 196.805 158.211 173.076 164.57Z" stroke="#FF26C2" stroke-width="35" stroke-linecap="round" stroke-linejoin="round"/>
        </g>
        <g style="mix-blend-mode:hard-light" filter="url(#filter3_ddi_80_794)">
            <path d="M173.076 164.57C149.348 170.928 135.208 195.128 141.504 218.625C146.587 237.592 166.169 280.593 252.383 306.265C253.925 306.717 255.562 306.736 257.114 306.32C258.666 305.904 260.074 305.069 261.184 303.907C323.012 238.567 318.47 191.536 313.387 172.569C307.092 149.072 282.746 135.184 259.018 141.542C235.289 147.9 222.955 178.838 222.955 178.838C222.955 178.838 196.805 158.211 173.076 164.57Z" stroke="#FB37FF" stroke-opacity="0.2" stroke-width="30" stroke-linecap="round" stroke-linejoin="round"/>
        </g>
        <g filter="url(#filter4_f_80_794)">
            <path d="M173.076 164.57C149.348 170.928 135.208 195.128 141.504 218.625C146.587 237.592 166.169 280.593 252.383 306.265C253.925 306.717 255.562 306.736 257.114 306.32C258.666 305.904 260.074 305.069 261.184 303.907C323.012 238.567 318.47 191.536 313.387 172.569C307.092 149.072 282.746 135.184 259.018 141.542C235.289 147.9 222.955 178.838 222.955 178.838C222.955 178.838 196.805 158.211 173.076 164.57Z" stroke="#FB37FF" stroke-width="20" stroke-linecap="round" stroke-linejoin="round"/>
        </g>
        <g filter="url(#filter5_f_80_794)">
            <path d="M173.076 164.57C149.348 170.928 135.208 195.128 141.504 218.625C146.587 237.592 166.169 280.593 252.383 306.265C253.925 306.717 255.562 306.736 257.114 306.32C258.666 305.904 260.074 305.069 261.184 303.907C323.012 238.567 318.47 191.536 313.387 172.569C307.092 149.072 282.746 135.184 259.018 141.542C235.289 147.9 222.955 178.838 222.955 178.838C222.955 178.838 196.805 158.211 173.076 164.57Z" stroke="white" stroke-width="10" stroke-linecap="round" stroke-linejoin="round"/>
        </g>
        <defs>
            <filter id="filter0_f_80_794" x="7.41211" y="46.2661" width="480.558" height="458.796" filterUnits="userSpaceOnUse" color-interpolation-filters="sRGB">
                <feFlood flood-opacity="0" result="BackgroundImageFix"/>
                <feBlend mode="normal" in="SourceGraphic" in2="BackgroundImageFix" result="shape"/>
                <feGaussianBlur stdDeviation="62.5" result="effect1_foregroundBlur_80_794"/>
            </filter>
            <filter id="filter1_f_80_794" x="0" y="0" width="456.09" height="446.618" filterUnits="userSpaceOnUse" color-interpolation-filters="sRGB">
                <feFlood flood-opacity="0" result="BackgroundImageFix"/>
                <feBlend mode="normal" in="SourceGraphic" in2="BackgroundImageFix" result="shape"/>
                <feGaussianBlur stdDeviation="62.5" result="effect1_foregroundBlur_80_794"/>
            </filter>
            <filter id="filter2_f_80_794" x="80.8324" y="80.8333" width="294.425" height="284.951" filterUnits="userSpaceOnUse" color-interpolation-filters="sRGB">
                <feFlood flood-opacity="0" result="BackgroundImageFix"/>
                <feBlend mode="normal" in="SourceGraphic" in2="BackgroundImageFix" result="shape"/>
                <feGaussianBlur stdDeviation="20.8333" result="effect1_foregroundBlur_80_794"/>
            </filter>
            <filter id="filter3_ddi_80_794" x="70.8333" y="112.5" width="314.424" height="304.951" filterUnits="userSpaceOnUse" color-interpolation-filters="sRGB">
                <feFlood flood-opacity="0" result="BackgroundImageFix"/>
                <feColorMatrix in="SourceAlpha" type="matrix" values="0 0 0 0 0 0 0 0 0 0 0 0 0 0 0 0 0 0 127 0" result="hardAlpha"/>
                <feOffset dy="27.0833"/>
                <feGaussianBlur stdDeviation="10.4167"/>
                <feColorMatrix type="matrix" values="0 0 0 0 0.3 0 0 0 0 0 0 0 0 0 0.26 0 0 0 0.7 0"/>
                <feBlend mode="multiply" in2="BackgroundImageFix" result="effect1_dropShadow_80_794"/>
                <feColorMatrix in="SourceAlpha" type="matrix" values="0 0 0 0 0 0 0 0 0 0 0 0 0 0 0 0 0 0 127 0" result="hardAlpha"/>
                <feOffset dy="41.6667"/>
                <feGaussianBlur stdDeviation="27.0833"/>
                <feColorMatrix type="matrix" values="0 0 0 0 0.6 0 0 0 0 0 0 0 0 0 0.6 0 0 0 1 0"/>
                <feBlend mode="color-dodge" in2="effect1_dropShadow_80_794" result="effect2_dropShadow_80_794"/>
                <feBlend mode="normal" in="SourceGraphic" in2="effect2_dropShadow_80_794" result="shape"/>
                <feColorMatrix in="SourceAlpha" type="matrix" values="0 0 0 0 0 0 0 0 0 0 0 0 0 0 0 0 0 0 127 0" result="hardAlpha"/>
                <feOffset dx="-2.70833" dy="5.41667"/>
                <feGaussianBlur stdDeviation="1.35417"/>
                <feComposite in2="hardAlpha" operator="arithmetic" k2="-1" k3="1"/>
                <feColorMatrix type="matrix" values="0 0 0 0 1 0 0 0 0 1 0 0 0 0 1 0 0 0 0.5 0"/>
                <feBlend mode="normal" in2="shape" result="effect3_innerShadow_80_794"/>
            </filter>
            <filter id="filter4_f_80_794" x="125.836" y="125.833" width="204.421" height="194.951" filterUnits="userSpaceOnUse" color-interpolation-filters="sRGB">
                <feFlood flood-opacity="0" result="BackgroundImageFix"/>
                <feBlend mode="normal" in="SourceGraphic" in2="BackgroundImageFix" result="shape"/>
                <feGaussianBlur stdDeviation="2.08333" result="effect1_foregroundBlur_80_794"/>
            </filter>
            <filter id="filter5_f_80_794" x="132.227" y="132.222" width="191.641" height="182.174" filterUnits="userSpaceOnUse" color-interpolation-filters="sRGB">
                <feFlood flood-opacity="0" result="BackgroundImageFix"/>
                <feBlend mode="normal" in="SourceGraphic" in2="BackgroundImageFix" result="shape"/>
                <feGaussianBlur stdDeviation="1.38889" result="effect1_foregroundBlur_80_794"/>
            </filter>
        </defs>
    </symbol>

    <symbol id="arrow-up-right"  viewBox="0 0 20 20" fill="none">
        <path d="M15.6249 5V13.125C15.6249 13.2908 15.559 13.4497 15.4418 13.5669C15.3246 13.6842 15.1656 13.75 14.9999 13.75C14.8341 13.75 14.6751 13.6842 14.5579 13.5669C14.4407 13.4497 14.3749 13.2908 14.3749 13.125V6.50859L5.44205 15.4422C5.32477 15.5595 5.16571 15.6253 4.99986 15.6253C4.83401 15.6253 4.67495 15.5595 4.55767 15.4422C4.4404 15.3249 4.37451 15.1659 4.37451 15C4.37451 14.8341 4.4404 14.6751 4.55767 14.5578L13.4913 5.625H6.87486C6.7091 5.625 6.55013 5.55915 6.43292 5.44194C6.31571 5.32473 6.24986 5.16576 6.24986 5C6.24986 4.83424 6.31571 4.67527 6.43292 4.55806C6.55013 4.44085 6.7091 4.375 6.87486 4.375H14.9999C15.1656 4.375 15.3246 4.44085 15.4418 4.55806C15.559 4.67527 15.6249 4.83424 15.6249 5Z" fill="white"/>
    </symbol>

    <symbol id="plus"  viewBox="0 0 16 16" fill="none">
        <path d="M14 8C14 8.13261 13.9473 8.25979 13.8536 8.35355C13.7598 8.44732 13.6326 8.5 13.5 8.5H8.5V13.5C8.5 13.6326 8.44732 13.7598 8.35355 13.8536C8.25979 13.9473 8.13261 14 8 14C7.86739 14 7.74021 13.9473 7.64645 13.8536C7.55268 13.7598 7.5 13.6326 7.5 13.5V8.5H2.5C2.36739 8.5 2.24021 8.44732 2.14645 8.35355C2.05268 8.25979 2 8.13261 2 8C2 7.86739 2.05268 7.74021 2.14645 7.64645C2.24021 7.55268 2.36739 7.5 2.5 7.5H7.5V2.5C7.5 2.36739 7.55268 2.24021 7.64645 2.14645C7.74021 2.05268 7.86739 2 8 2C8.13261 2 8.25979 2.05268 8.35355 2.14645C8.44732 2.24021 8.5 2.36739 8.5 2.5V7.5H13.5C13.6326 7.5 13.7598 7.55268 13.8536 7.64645C13.9473 7.74021 14 7.86739 14 8Z" fill="white"/>
    </symbol>

    <symbol id="crown" viewBox="0 0 14 12" fill="none">
        <path d="M13.9847 4.1763C13.9847 4.18318 13.9847 4.18943 13.9803 4.1963L12.5628 10.6882C12.5191 10.9168 12.3971 11.123 12.2178 11.2713C12.0385 11.4196 11.813 11.5007 11.5803 11.5007H2.41965C2.18704 11.5006 1.96173 11.4194 1.78252 11.2711C1.6033 11.1228 1.48139 10.9167 1.43778 10.6882L0.0202782 4.1963C0.0202782 4.18943 0.0171532 4.18318 0.0159032 4.1763C-0.0228922 3.96136 0.00974771 3.73964 0.108836 3.545C0.207924 3.35036 0.368011 3.19351 0.564635 3.09842C0.76126 3.00333 0.983609 2.97523 1.19771 3.01841C1.41181 3.06159 1.60588 3.17368 1.75028 3.33755L3.85465 5.60568L6.09215 0.587551C6.09226 0.585469 6.09226 0.583383 6.09215 0.581301C6.17216 0.407767 6.30022 0.260791 6.46116 0.157771C6.6221 0.0547507 6.80919 0 7.00028 0C7.19137 0 7.37846 0.0547507 7.5394 0.157771C7.70034 0.260791 7.82839 0.407767 7.9084 0.581301C7.9083 0.583383 7.9083 0.585469 7.9084 0.587551L10.1459 5.60568L12.2503 3.33755C12.395 3.1749 12.5888 3.06391 12.8023 3.02143C13.0158 2.97896 13.2374 3.00731 13.4333 3.1022C13.6292 3.19709 13.7888 3.35333 13.8879 3.54718C13.987 3.74104 14.0201 3.96193 13.9822 4.1763H13.9847Z" fill="#FF9000"/>
    </symbol>

    <symbol id="camera-plus"  viewBox="0 0 24 24" fill="none">
        <path d="M15.75 12.75C15.75 12.9489 15.671 13.1397 15.5303 13.2803C15.3897 13.421 15.1989 13.5 15 13.5H12.75V15.75C12.75 15.9489 12.671 16.1397 12.5303 16.2803C12.3897 16.421 12.1989 16.5 12 16.5C11.8011 16.5 11.6103 16.421 11.4697 16.2803C11.329 16.1397 11.25 15.9489 11.25 15.75V13.5H9C8.80109 13.5 8.61032 13.421 8.46967 13.2803C8.32902 13.1397 8.25 12.9489 8.25 12.75C8.25 12.5511 8.32902 12.3603 8.46967 12.2197C8.61032 12.079 8.80109 12 9 12H11.25V9.75C11.25 9.55109 11.329 9.36032 11.4697 9.21967C11.6103 9.07902 11.8011 9 12 9C12.1989 9 12.3897 9.07902 12.5303 9.21967C12.671 9.36032 12.75 9.55109 12.75 9.75V12H15C15.1989 12 15.3897 12.079 15.5303 12.2197C15.671 12.3603 15.75 12.5511 15.75 12.75ZM21.75 7.5V18C21.75 18.5967 21.5129 19.169 21.091 19.591C20.669 20.0129 20.0967 20.25 19.5 20.25H4.5C3.90326 20.25 3.33097 20.0129 2.90901 19.591C2.48705 19.169 2.25 18.5967 2.25 18V7.5C2.25 6.90326 2.48705 6.33097 2.90901 5.90901C3.33097 5.48705 3.90326 5.25 4.5 5.25H7.09875L8.15625 3.6675C8.29299 3.46255 8.47811 3.29443 8.69525 3.17801C8.91239 3.0616 9.15487 3.00046 9.40125 3H14.5988C14.8451 3.00046 15.0876 3.0616 15.3047 3.17801C15.5219 3.29443 15.707 3.46255 15.8438 3.6675L16.9012 5.25H19.5C20.0967 5.25 20.669 5.48705 21.091 5.90901C21.5129 6.33097 21.75 6.90326 21.75 7.5ZM20.25 7.5C20.25 7.30109 20.171 7.11032 20.0303 6.96967C19.8897 6.82902 19.6989 6.75 19.5 6.75H16.5C16.3765 6.75008 16.2549 6.71966 16.146 6.66143C16.037 6.60321 15.9442 6.51899 15.8756 6.41625L14.5988 4.5H9.40125L8.12438 6.41625C8.05583 6.51899 7.96297 6.60321 7.85405 6.66143C7.74512 6.71966 7.62351 6.75008 7.5 6.75H4.5C4.30109 6.75 4.11032 6.82902 3.96967 6.96967C3.82902 7.11032 3.75 7.30109 3.75 7.5V18C3.75 18.1989 3.82902 18.3897 3.96967 18.5303C4.11032 18.671 4.30109 18.75 4.5 18.75H19.5C19.6989 18.75 19.8897 18.671 20.0303 18.5303C20.171 18.3897 20.25 18.1989 20.25 18V7.5Z" fill="white"/>
    </symbol>


    <symbol id="check"  viewBox="0 0 32 32" fill="none">
        <path d="M28.7071 9.70751L12.7071 25.7075C12.6142 25.8005 12.5039 25.8742 12.3825 25.9246C12.2611 25.9749 12.131 26.0008 11.9996 26.0008C11.8682 26.0008 11.738 25.9749 11.6166 25.9246C11.4952 25.8742 11.385 25.8005 11.2921 25.7075L4.29208 18.7075C4.10444 18.5199 3.99902 18.2654 3.99902 18C3.99902 17.7346 4.10444 17.4801 4.29208 17.2925C4.47972 17.1049 4.73422 16.9994 4.99958 16.9994C5.26494 16.9994 5.51944 17.1049 5.70708 17.2925L11.9996 23.5863L27.2921 8.29251C27.4797 8.10487 27.7342 7.99945 27.9996 7.99945C28.2649 7.99945 28.5194 8.10487 28.7071 8.29251C28.8947 8.48015 29.0001 8.73464 29.0001 9.00001C29.0001 9.26537 28.8947 9.51987 28.7071 9.70751Z" fill="#4ED913"/>
    </symbol>

    <symbol id="gmail"  viewBox="0 0 20 20" fill="none">
        <path opacity="0.987" fill-rule="evenodd" clip-rule="evenodd" d="M9.0118 1.32624C9.91805 1.22499 10.4543 1.22499 11.428 1.32624C13.1517 1.58136 14.7496 2.3781 15.9905 3.60124C15.152 4.39391 14.3244 5.19816 13.508 6.01374C11.9447 4.68874 10.1997 4.38291 8.27305 5.09624C6.85971 5.74624 5.87555 6.79958 5.32055 8.25624C4.4136 7.58103 3.51846 6.89009 2.63555 6.18374C2.57419 6.15144 2.50411 6.13962 2.43555 6.14999C3.83805 3.44583 6.02971 1.83749 9.01055 1.32499" fill="#F44336"/>
        <path opacity="0.997" fill-rule="evenodd" clip-rule="evenodd" d="M2.43282 6.14998C2.50365 6.13915 2.57073 6.1504 2.63407 6.18373C3.51698 6.89008 4.41212 7.58102 5.31907 8.25623C5.17635 8.82381 5.08638 9.40335 5.05031 9.98748C5.08115 10.5525 5.17073 11.1071 5.31907 11.6512L2.50032 13.895C1.27282 11.33 1.25032 8.74832 2.43282 6.14998Z" fill="#FFC107"/>
        <path opacity="0.999" fill-rule="evenodd" clip-rule="evenodd" d="M15.8561 16.6125C14.9784 15.8385 14.0596 15.1124 13.1036 14.4375C14.0619 13.7608 14.6436 12.8325 14.8486 11.6525H10.1523V8.39123C12.8607 8.36873 15.5678 8.39165 18.2736 8.45998C18.7869 11.2475 18.194 13.7608 16.4948 16C16.2928 16.2148 16.0788 16.4192 15.8561 16.6125Z" fill="#448AFF"/>
        <path opacity="0.993" fill-rule="evenodd" clip-rule="evenodd" d="M5.31875 11.6525C6.34375 14.2 8.22292 15.3891 10.9563 15.22C11.7235 15.1311 12.4592 14.8631 13.1038 14.4375C14.0604 15.1141 14.9779 15.8391 15.8563 16.6125C14.4646 17.863 12.6901 18.6051 10.8225 18.7175C10.3982 18.7514 9.97182 18.7514 9.5475 18.7175C6.36583 18.3425 4.01667 16.735 2.5 13.895L5.31875 11.6525Z" fill="#43A047"/>
    </symbol>

    <symbol id="arrow-left"  viewBox="0 0 24 24" fill="none">
        <path d="M15.5302 18.9694C15.5999 19.039 15.6552 19.1218 15.6929 19.2128C15.7306 19.3039 15.75 19.4014 15.75 19.5C15.75 19.5985 15.7306 19.6961 15.6929 19.7872C15.6552 19.8782 15.5999 19.9609 15.5302 20.0306C15.4606 20.1003 15.3778 20.1556 15.2868 20.1933C15.1957 20.231 15.0982 20.2504 14.9996 20.2504C14.9011 20.2504 14.8035 20.231 14.7124 20.1933C14.6214 20.1556 14.5387 20.1003 14.469 20.0306L6.96899 12.5306C6.89926 12.461 6.84394 12.3782 6.80619 12.2872C6.76845 12.1961 6.74902 12.0986 6.74902 12C6.74902 11.9014 6.76845 11.8038 6.80619 11.7128C6.84394 11.6217 6.89926 11.539 6.96899 11.4694L14.469 3.96936C14.6097 3.82863 14.8006 3.74957 14.9996 3.74957C15.1986 3.74957 15.3895 3.82863 15.5302 3.96936C15.671 4.1101 15.75 4.30097 15.75 4.49999C15.75 4.69901 15.671 4.88988 15.5302 5.03061L8.55993 12L15.5302 18.9694Z" fill="white"/>
    </symbol>

    <symbol id="cancel"  viewBox="0 0 24 24" fill="none">
        <path d="M19.281 18.2194C19.3507 18.289 19.406 18.3718 19.4437 18.4628C19.4814 18.5539 19.5008 18.6514 19.5008 18.75C19.5008 18.8485 19.4814 18.9461 19.4437 19.0372C19.406 19.1282 19.3507 19.2109 19.281 19.2806C19.2114 19.3503 19.1286 19.4056 19.0376 19.4433C18.9465 19.481 18.849 19.5004 18.7504 19.5004C18.6519 19.5004 18.5543 19.481 18.4632 19.4433C18.3722 19.4056 18.2895 19.3503 18.2198 19.2806L12.0004 13.0603L5.78104 19.2806C5.64031 19.4213 5.44944 19.5004 5.25042 19.5004C5.05139 19.5004 4.86052 19.4213 4.71979 19.2806C4.57906 19.1399 4.5 18.949 4.5 18.75C4.5 18.551 4.57906 18.3601 4.71979 18.2194L10.9401 12L4.71979 5.78061C4.57906 5.63988 4.5 5.44901 4.5 5.24999C4.5 5.05097 4.57906 4.8601 4.71979 4.71936C4.86052 4.57863 5.05139 4.49957 5.25042 4.49957C5.44944 4.49957 5.64031 4.57863 5.78104 4.71936L12.0004 10.9397L18.2198 4.71936C18.3605 4.57863 18.5514 4.49957 18.7504 4.49957C18.9494 4.49957 19.1403 4.57863 19.281 4.71936C19.4218 4.8601 19.5008 5.05097 19.5008 5.24999C19.5008 5.44901 19.4218 5.63988 19.281 5.78061L13.0607 12L19.281 18.2194Z" fill="white"/>
    </symbol>

    <symbol id="arrow-up-left"  viewBox="0 0 24 24" fill="none">
        <path d="M21.7506 13.5C21.7489 15.0908 21.1162 16.6159 19.9913 17.7407C18.8665 18.8656 17.3414 19.4983 15.7506 19.5H7.50059C7.30168 19.5 7.11091 19.421 6.97026 19.2803C6.82961 19.1397 6.75059 18.9489 6.75059 18.75C6.75059 18.5511 6.82961 18.3603 6.97026 18.2197C7.11091 18.079 7.30168 18 7.50059 18H15.7506C16.9441 18 18.0887 17.5259 18.9326 16.682C19.7765 15.8381 20.2506 14.6935 20.2506 13.5C20.2506 12.3065 19.7765 11.1619 18.9326 10.318C18.0887 9.4741 16.9441 8.99999 15.7506 8.99999H4.8109L8.03122 12.2194C8.17195 12.3601 8.25101 12.551 8.25101 12.75C8.25101 12.949 8.17195 13.1399 8.03122 13.2806C7.89048 13.4213 7.69961 13.5004 7.50059 13.5004C7.30157 13.5004 7.1107 13.4213 6.96996 13.2806L2.46996 8.78061C2.40023 8.71096 2.34491 8.62824 2.30717 8.5372C2.26943 8.44615 2.25 8.34855 2.25 8.24999C2.25 8.15143 2.26943 8.05383 2.30717 7.96278C2.34491 7.87174 2.40023 7.78902 2.46996 7.71936L6.96996 3.21936C7.1107 3.07863 7.30157 2.99957 7.50059 2.99957C7.69961 2.99957 7.89048 3.07863 8.03121 3.21936C8.17195 3.3601 8.25101 3.55097 8.25101 3.74999C8.25101 3.94901 8.17195 4.13988 8.03122 4.28061L4.8109 7.49999H15.7506C17.3414 7.50173 18.8665 8.13443 19.9913 9.25927C21.1162 10.3841 21.7489 11.9092 21.7506 13.5Z" fill="white"/>
    </symbol>

    <symbol  id="arrow-out-simple" viewBox="0 0 24 24" fill="none">
        <path d="M20.25 4.5V9C20.25 9.19891 20.171 9.38968 20.0303 9.53033C19.8897 9.67098 19.6989 9.75 19.5 9.75C19.3011 9.75 19.1103 9.67098 18.9697 9.53033C18.829 9.38968 18.75 9.19891 18.75 9V6.31031L14.0306 11.0306C13.8899 11.1714 13.699 11.2504 13.5 11.2504C13.301 11.2504 13.1101 11.1714 12.9694 11.0306C12.8286 10.8899 12.7496 10.699 12.7496 10.5C12.7496 10.301 12.8286 10.1101 12.9694 9.96937L17.6897 5.25H15C14.8011 5.25 14.6103 5.17098 14.4697 5.03033C14.329 4.88968 14.25 4.69891 14.25 4.5C14.25 4.30109 14.329 4.11032 14.4697 3.96967C14.6103 3.82902 14.8011 3.75 15 3.75H19.5C19.6989 3.75 19.8897 3.82902 20.0303 3.96967C20.171 4.11032 20.25 4.30109 20.25 4.5ZM9.96937 12.9694L5.25 17.6897V15C5.25 14.8011 5.17098 14.6103 5.03033 14.4697C4.88968 14.329 4.69891 14.25 4.5 14.25C4.30109 14.25 4.11032 14.329 3.96967 14.4697C3.82902 14.6103 3.75 14.8011 3.75 15V19.5C3.75 19.6989 3.82902 19.8897 3.96967 20.0303C4.11032 20.171 4.30109 20.25 4.5 20.25H9C9.19891 20.25 9.38968 20.171 9.53033 20.0303C9.67098 19.8897 9.75 19.6989 9.75 19.5C9.75 19.3011 9.67098 19.1103 9.53033 18.9697C9.38968 18.829 9.19891 18.75 9 18.75H6.31031L11.0306 14.0306C11.1714 13.8899 11.2504 13.699 11.2504 13.5C11.2504 13.301 11.1714 13.1101 11.0306 12.9694C10.8899 12.8286 10.699 12.7496 10.5 12.7496C10.301 12.7496 10.1101 12.8286 9.96937 12.9694Z" fill="white"/>
    </symbol>

    <symbol id="download"  viewBox="0 0 24 24" fill="none">
        <path d="M21 13.5V19.5C21 19.6989 20.921 19.8897 20.7803 20.0303C20.6397 20.171 20.4489 20.25 20.25 20.25H3.75C3.55109 20.25 3.36032 20.171 3.21967 20.0303C3.07902 19.8897 3 19.6989 3 19.5V13.5C3 13.3011 3.07902 13.1103 3.21967 12.9697C3.36032 12.829 3.55109 12.75 3.75 12.75C3.94891 12.75 4.13968 12.829 4.28033 12.9697C4.42098 13.1103 4.5 13.3011 4.5 13.5V18.75H19.5V13.5C19.5 13.3011 19.579 13.1103 19.7197 12.9697C19.8603 12.829 20.0511 12.75 20.25 12.75C20.4489 12.75 20.6397 12.829 20.7803 12.9697C20.921 13.1103 21 13.3011 21 13.5ZM11.4694 14.0306C11.539 14.1004 11.6217 14.1557 11.7128 14.1934C11.8038 14.2312 11.9014 14.2506 12 14.2506C12.0986 14.2506 12.1962 14.2312 12.2872 14.1934C12.3783 14.1557 12.461 14.1004 12.5306 14.0306L16.2806 10.2806C16.3503 10.2109 16.4056 10.1282 16.4433 10.0372C16.481 9.94613 16.5004 9.84855 16.5004 9.75C16.5004 9.65145 16.481 9.55387 16.4433 9.46283C16.4056 9.37178 16.3503 9.28906 16.2806 9.21937C16.2109 9.14969 16.1282 9.09442 16.0372 9.0567C15.9461 9.01899 15.8485 8.99958 15.75 8.99958C15.6515 8.99958 15.5539 9.01899 15.4628 9.0567C15.3718 9.09442 15.2891 9.14969 15.2194 9.21937L12.75 11.6897V3C12.75 2.80109 12.671 2.61032 12.5303 2.46967C12.3897 2.32902 12.1989 2.25 12 2.25C11.8011 2.25 11.6103 2.32902 11.4697 2.46967C11.329 2.61032 11.25 2.80109 11.25 3V11.6897L8.78063 9.21937C8.63989 9.07864 8.44902 8.99958 8.25 8.99958C8.05098 8.99958 7.86011 9.07864 7.71937 9.21937C7.57864 9.36011 7.49958 9.55098 7.49958 9.75C7.49958 9.94902 7.57864 10.1399 7.71937 10.2806L11.4694 14.0306Z" fill="white"/>
    </symbol>

    <symbol id="eye"  viewBox="0 0 24 24" fill="none">
        <path d="M23.1853 11.6963C23.1525 11.6222 22.3584 9.86062 20.5931 8.09531C18.2409 5.74312 15.27 4.5 12 4.5C8.72999 4.5 5.75905 5.74312 3.40687 8.09531C1.64155 9.86062 0.843741 11.625 0.814679 11.6963C0.772035 11.7922 0.75 11.896 0.75 12.0009C0.75 12.1059 0.772035 12.2097 0.814679 12.3056C0.847491 12.3797 1.64155 14.1403 3.40687 15.9056C5.75905 18.2569 8.72999 19.5 12 19.5C15.27 19.5 18.2409 18.2569 20.5931 15.9056C22.3584 14.1403 23.1525 12.3797 23.1853 12.3056C23.2279 12.2097 23.25 12.1059 23.25 12.0009C23.25 11.896 23.2279 11.7922 23.1853 11.6963ZM12 18C9.11437 18 6.59343 16.9509 4.50655 14.8828C3.65028 14.0313 2.92179 13.0603 2.34374 12C2.92164 10.9396 3.65014 9.9686 4.50655 9.11719C6.59343 7.04906 9.11437 6 12 6C14.8856 6 17.4066 7.04906 19.4934 9.11719C20.3514 9.9684 21.0815 10.9394 21.6609 12C20.985 13.2619 18.0403 18 12 18ZM12 7.5C11.11 7.5 10.2399 7.76392 9.49993 8.25839C8.7599 8.75285 8.18313 9.45566 7.84253 10.2779C7.50194 11.1002 7.41282 12.005 7.58646 12.8779C7.76009 13.7508 8.18867 14.5526 8.81801 15.182C9.44735 15.8113 10.2492 16.2399 11.1221 16.4135C11.995 16.5872 12.8998 16.4981 13.7221 16.1575C14.5443 15.8169 15.2471 15.2401 15.7416 14.5001C16.2361 13.76 16.5 12.89 16.5 12C16.4988 10.8069 16.0242 9.66303 15.1806 8.81939C14.337 7.97575 13.1931 7.50124 12 7.5ZM12 15C11.4066 15 10.8266 14.8241 10.3333 14.4944C9.83993 14.1648 9.45542 13.6962 9.22835 13.148C9.00129 12.5999 8.94188 11.9967 9.05764 11.4147C9.17339 10.8328 9.45911 10.2982 9.87867 9.87868C10.2982 9.45912 10.8328 9.1734 11.4147 9.05764C11.9967 8.94189 12.5999 9.0013 13.148 9.22836C13.6962 9.45542 14.1648 9.83994 14.4944 10.3333C14.824 10.8266 15 11.4067 15 12C15 12.7956 14.6839 13.5587 14.1213 14.1213C13.5587 14.6839 12.7956 15 12 15Z" fill="white"/>
    </symbol>

    <symbol id="share" viewBox="0 0 24 24" fill="none">
        <path d="M22.2806 9.97033L14.7806 2.47033C14.6757 2.36538 14.5421 2.29387 14.3967 2.26486C14.2512 2.23584 14.1004 2.25061 13.9633 2.30731C13.8262 2.36401 13.709 2.46008 13.6265 2.58339C13.5441 2.70669 13.5 2.85168 13.4999 3.00002V6.78283C11.0681 6.99096 8.38213 8.18158 6.17244 10.0556C3.51182 12.3131 1.85526 15.2222 1.50744 18.2466C1.48026 18.4817 1.52794 18.7194 1.64368 18.9259C1.75943 19.1324 1.93735 19.2971 2.15212 19.3966C2.36689 19.496 2.60757 19.5253 2.83991 19.48C3.07225 19.4348 3.28441 19.3175 3.44619 19.1447C4.47744 18.0469 8.14682 14.5753 13.4999 14.2697V18C13.5 18.1484 13.5441 18.2934 13.6265 18.4167C13.709 18.54 13.8262 18.636 13.9633 18.6927C14.1004 18.7494 14.2512 18.7642 14.3967 18.7352C14.5421 18.7062 14.6757 18.6347 14.7806 18.5297L22.2806 11.0297C22.4208 10.8891 22.4996 10.6986 22.4996 10.5C22.4996 10.3014 22.4208 10.1109 22.2806 9.97033ZM14.9999 16.1897V13.5C14.9999 13.3011 14.9209 13.1103 14.7803 12.9697C14.6396 12.829 14.4489 12.75 14.2499 12.75C11.6174 12.75 9.05338 13.4372 6.629 14.7938C5.39427 15.4877 4.24383 16.322 3.20057 17.28C3.74432 15.045 5.11494 12.9197 7.14276 11.1994C9.31963 9.35346 11.9765 8.25002 14.2499 8.25002C14.4489 8.25002 14.6396 8.171 14.7803 8.03035C14.9209 7.8897 14.9999 7.69893 14.9999 7.50002V4.81127L20.6896 10.5L14.9999 16.1897Z" fill="white"/>
    </symbol>
</svg>


